<?xml version="1.0" standalone="no"?>
<!DOCTYPE svg PUBLIC "-//W3C//DTD SVG 20010904//EN"
 "http://www.w3.org/TR/2001/REC-SVG-20010904/DTD/svg10.dtd">
<svg version="1.0" xmlns="http://www.w3.org/2000/svg"
 width="460.000000pt" height="460.000000pt" viewBox="0 0 460.000000 460.000000"
 preserveAspectRatio="xMidYMid meet">
<metadata>
Created by potrace 1.14, written by Peter Selinger 2001-2017
</metadata>
<g transform="translate(0.000000,460.000000) scale(0.100000,-0.100000)"
fill="#000000" stroke="none">
<path d="M2098 4585 c-1 -1 -34 -6 -73 -9 -38 -4 -104 -13 -145 -22 -41 -9
-84 -17 -95 -19 -77 -11 -373 -110 -387 -130 -4 -5 -8 -7 -8 -2 0 4 -33 -9
-72 -30 -40 -20 -75 -37 -78 -38 -5 -1 -20 -9 -80 -45 -19 -11 -43 -23 -52
-26 -10 -4 -18 -10 -18 -15 0 -5 -7 -9 -15 -9 -8 0 -15 -5 -15 -12 0 -6 -3 -9
-6 -5 -4 3 -12 1 -20 -6 -22 -20 -37 -31 -69 -51 -47 -30 -225 -177 -225 -186
0 -5 -9 -12 -21 -15 -11 -4 -19 -9 -17 -11 2 -2 -25 -34 -61 -72 -62 -64 -107
-115 -164 -187 -41 -51 -164 -238 -178 -270 -7 -16 -21 -42 -32 -57 -10 -16
-15 -28 -10 -28 4 0 3 -4 -2 -8 -28 -19 -156 -350 -180 -461 -2 -9 -11 -50
-20 -91 -33 -154 -45 -276 -45 -476 0 -243 16 -384 66 -579 9 -33 18 -67 20
-75 9 -38 65 -193 97 -265 76 -176 202 -390 280 -476 9 -10 17 -21 17 -24 0
-21 192 -222 300 -316 41 -35 77 -66 80 -69 19 -19 121 -90 130 -90 6 0 8 -4
5 -10 -3 -5 -1 -10 5 -10 7 0 40 -19 75 -41 35 -23 66 -41 70 -40 4 2 11 -1
14 -6 7 -12 251 -135 251 -128 0 3 12 -1 28 -8 55 -29 225 -82 357 -112 220
-51 631 -66 830 -30 24 4 207 41 250 49 6 2 44 13 85 26 41 13 77 24 80 25 3
1 19 7 35 14 17 6 50 19 75 28 62 23 284 134 288 145 2 4 10 8 18 8 8 0 24 9
36 20 12 11 28 20 35 20 7 0 13 4 13 9 0 5 13 14 29 21 16 6 32 18 35 27 3 8
10 11 16 8 5 -3 10 -2 10 3 0 5 19 22 42 38 24 16 54 39 68 51 14 12 36 31 49
42 13 12 28 21 33 21 5 0 6 5 3 10 -3 6 -2 10 3 10 22 0 296 289 275 290 -5 0
-1 6 7 13 21 17 70 84 70 95 0 6 4 12 9 14 19 7 210 346 211 373 0 3 7 22 16
43 9 20 17 42 18 47 1 6 5 15 8 21 27 43 94 301 122 474 20 119 24 491 7 601
-6 35 -13 80 -15 99 -3 19 -7 46 -10 60 -3 14 -11 50 -17 79 -6 30 -22 91 -36
135 -13 45 -26 88 -28 98 -2 9 -11 30 -19 47 -9 17 -14 31 -12 31 7 0 -78 186
-93 204 -8 9 -11 16 -7 16 8 0 -55 113 -68 122 -6 4 -7 8 -3 8 4 0 -13 29 -38
65 -25 36 -43 65 -40 65 3 0 -3 8 -12 18 -28 29 -53 62 -53 68 0 3 -6 11 -12
19 -7 7 -29 32 -48 56 -19 24 -51 60 -71 80 -21 21 -35 40 -32 42 2 3 -4 8
-15 11 -10 4 -25 18 -32 31 -7 14 -15 23 -17 21 -2 -2 -18 11 -36 28 -68 66
-124 113 -187 159 -36 26 -72 54 -82 62 -9 7 -19 11 -22 8 -3 -4 -6 -2 -6 4 0
6 -13 16 -30 23 -16 7 -30 17 -30 22 0 5 -4 6 -10 3 -5 -3 -10 -2 -10 4 0 5
-22 20 -50 32 -27 12 -50 26 -50 31 0 4 -7 8 -15 8 -9 0 -33 11 -55 25 -22 14
-40 23 -40 20 0 -3 -10 1 -22 9 -29 19 -228 96 -228 89 0 -3 -6 -1 -12 5 -11
9 -205 60 -293 77 -108 21 -293 35 -447 34 -97 0 -178 -2 -180 -4z"/>
</g>
</svg>
